<svg shape-rendering="crispEdges" viewBox="0 0 32 32" xmlns="http://www.w3.org/2000/svg"><rect x="9" y="5" width="14" height="9" fill="#000"/><rect x="10" y="6" width="12" height="7" fill="#8a9098"/><rect x="12" y="7" width="8" height="3" fill="#1a2a3a"/><rect x="13" y="7" width="3" height="1" fill="#7fc8ff"/><rect x="5" y="6" width="4" height="8" fill="#000"/><rect x="6" y="7" width="2" height="6" fill="#c08a20"/><rect x="23" y="6" width="4" height="8" fill="#000"/><rect x="24" y="7" width="2" height="6" fill="#c08a20"/><rect x="6" y="13" width="2" height="4" fill="#404448"/><rect x="24" y="13" width="2" height="4" fill="#404448"/><rect x="11" y="14" width="10" height="3" fill="#404448"/><rect x="11" y="17" width="4" height="7" fill="#000"/><rect x="12" y="17" width="2" height="6" fill="#8a9098"/><rect x="17" y="17" width="4" height="7" fill="#000"/><rect x="18" y="17" width="2" height="6" fill="#8a9098"/><rect x="10" y="24" width="5" height="5" fill="#000"/><rect x="11" y="24" width="3" height="4" fill="#6a7078"/><rect x="17" y="24" width="5" height="5" fill="#000"/><rect x="18" y="24" width="3" height="4" fill="#6a7078"/><rect x="8" y="29" width="8" height="2" fill="#404448"/><rect x="16" y="29" width="8" height="2" fill="#404448"/></svg>